<svg xmlns="http://www.w3.org/2000/svg" width="16.898" height="18.059" viewBox="0 0 16.898 18.059">
  <g id="noun_profile_1610895" transform="translate(-236.465 -40.958)">
    <g id="Group_37" data-name="Group 37" transform="translate(236.465 40.958)">
      <g id="Group_35" data-name="Group 35" transform="translate(0 10.162)">
        <g id="Group_34" data-name="Group 34">
          <path id="Path_12" data-name="Path 12" d="M26.854,62.079h-15.5a3.409,3.409,0,0,1-.7,0c0-4.653,3.026-7.879,8.447-7.879s8.453,3.226,8.453,7.879A5.428,5.428,0,0,1,26.854,62.079Z" transform="translate(-10.659 -54.2)" fill="#707070"/>
        </g>
      </g>
      <g id="Group_36" data-name="Group 36" transform="translate(4.079 0)">
        <path id="Path_13" data-name="Path 13" d="M33.468,17.1A4.568,4.568,0,0,1,29.1,12.355a4.368,4.368,0,1,1,8.735,0A4.568,4.568,0,0,1,33.468,17.1Z" transform="translate(-29.1 -7.9)" fill="#707070"/>
      </g>
    </g>
  </g>
</svg>
